<svg width="105" height="23" viewBox="0 0 105 23" fill="none" xmlns="http://www.w3.org/2000/svg">
<g clip-path="url(#clip0_1_12)">
<path d="M1.16211 18V3.89844H6.60156L8.96484 16.5645L11.2988 3.89844H16.7383V18H13.7793V5.44141L11.1621 18H6.73828L4.14062 5.44141V18H1.16211ZM23.3062 18.2441C21.7047 18.2441 20.3961 17.7493 19.3805 16.7598C18.3714 15.7637 17.8668 14.4355 17.8668 12.7754C17.8668 11.1152 18.3714 9.79036 19.3805 8.80078C20.3961 7.8112 21.7047 7.31641 23.3062 7.31641C24.9208 7.31641 26.2359 7.8112 27.2516 8.80078C28.2672 9.79036 28.775 11.1152 28.775 12.7754C28.775 14.4355 28.2672 15.7637 27.2516 16.7598C26.2359 17.7493 24.9208 18.2441 23.3062 18.2441ZM21.568 10.5684C21.1318 11.0892 20.9137 11.8249 20.9137 12.7754C20.9137 13.7259 21.1318 14.4616 21.568 14.9824C22.0042 15.5033 22.5836 15.7637 23.3062 15.7637C24.0354 15.7637 24.6214 15.5033 25.0641 14.9824C25.5068 14.4616 25.7281 13.7259 25.7281 12.7754C25.7281 11.8249 25.5068 11.0892 25.0641 10.5684C24.6214 10.041 24.0354 9.77734 23.3062 9.77734C22.5836 9.77734 22.0042 10.041 21.568 10.5684ZM34.757 18.2441C33.1555 18.2441 31.8469 17.7493 30.8312 16.7598C29.8221 15.7637 29.3176 14.4355 29.3176 12.7754C29.3176 11.1152 29.8221 9.79036 30.8312 8.80078C31.8469 7.8112 33.1555 7.31641 34.757 7.31641C36.3716 7.31641 37.6867 7.8112 38.7023 8.80078C39.718 9.79036 40.2258 11.1152 40.2258 12.7754C40.2258 14.4355 39.718 15.7637 38.7023 16.7598C37.6867 17.7493 36.3716 18.2441 34.757 18.2441ZM33.0187 10.5684C32.5826 11.0892 32.3645 11.8249 32.3645 12.7754C32.3645 13.7259 32.5826 14.4616 33.0187 14.9824C33.4549 15.5033 34.0344 15.7637 34.757 15.7637C35.4862 15.7637 36.0721 15.5033 36.5148 14.9824C36.9576 14.4616 37.1789 13.7259 37.1789 12.7754C37.1789 11.8249 36.9576 11.0892 36.5148 10.5684C36.0721 10.041 35.4862 9.77734 34.757 9.77734C34.0344 9.77734 33.4549 10.041 33.0187 10.5684ZM47.8094 11.9844C47.8094 11.3008 47.6531 10.7799 47.3406 10.4219C47.0346 10.0638 46.6049 9.88477 46.0516 9.88477C45.4461 9.88477 44.9676 10.0801 44.616 10.4707C44.2645 10.8613 44.0887 11.4049 44.0887 12.1016V18H41.1297V7.56055H43.9129V8.68359C44.5314 7.77214 45.5177 7.31641 46.8719 7.31641C48.0633 7.31641 49.0105 7.66797 49.7137 8.37109C50.4168 9.07422 50.7684 10.1387 50.7684 11.5645V18H47.8094V11.9844ZM53.7816 11.877L49.3187 3.89844H52.7367L55.8617 10.0605L58.977 3.89844H62.3852L57.9418 11.877H57.4047V18H54.2992V11.877H53.7816ZM65.8477 18.2441C64.2461 18.2441 62.9375 17.7493 61.9219 16.7598C60.9128 15.7637 60.4082 14.4355 60.4082 12.7754C60.4082 11.1152 60.9128 9.79036 61.9219 8.80078C62.9375 7.8112 64.2461 7.31641 65.8477 7.31641C67.4622 7.31641 68.7773 7.8112 69.793 8.80078C70.8086 9.79036 71.3164 11.1152 71.3164 12.7754C71.3164 14.4355 70.8086 15.7637 69.793 16.7598C68.7773 17.7493 67.4622 18.2441 65.8477 18.2441ZM64.1094 10.5684C63.6732 11.0892 63.4551 11.8249 63.4551 12.7754C63.4551 13.7259 63.6732 14.4616 64.1094 14.9824C64.5456 15.5033 65.125 15.7637 65.8477 15.7637C66.5768 15.7637 67.1628 15.5033 67.6055 14.9824C68.0482 14.4616 68.2695 13.7259 68.2695 12.7754C68.2695 11.8249 68.0482 11.0892 67.6055 10.5684C67.1628 10.041 66.5768 9.77734 65.8477 9.77734C65.125 9.77734 64.5456 10.041 64.1094 10.5684ZM76.898 18.2441C75.4527 18.2441 74.2939 17.8665 73.4215 17.1113C72.5556 16.3496 72.1227 15.2526 72.1227 13.8203V7.56055H75.0816V13.6641C75.0816 14.3477 75.2411 14.8685 75.5602 15.2266C75.8792 15.5846 76.3251 15.7637 76.898 15.7637C77.471 15.7637 77.9169 15.5846 78.2359 15.2266C78.5615 14.8685 78.7242 14.3477 78.7242 13.6641V7.56055H81.6832V13.8203C81.6832 15.2526 81.2438 16.3496 80.3648 17.1113C79.4924 17.8665 78.3369 18.2441 76.898 18.2441ZM89.5305 11.9844C89.5305 11.3008 89.3742 10.7799 89.0617 10.4219C88.7557 10.0638 88.326 9.88477 87.7727 9.88477C87.1672 9.88477 86.6887 10.0801 86.3371 10.4707C85.9855 10.8613 85.8098 11.4049 85.8098 12.1016V18H82.8508V7.56055H85.634V8.68359C86.2525 7.77214 87.2388 7.31641 88.593 7.31641C89.7844 7.31641 90.7316 7.66797 91.4348 8.37109C92.1379 9.07422 92.4895 10.1387 92.4895 11.5645V18H89.5305V11.9844ZM98.4031 22.2383C96.9708 22.2383 95.8152 21.9648 94.9363 21.418C94.0574 20.8776 93.478 20.0703 93.198 18.9961L95.8348 18.1758C96.1212 19.2956 96.9546 19.8555 98.3348 19.8555C99.1616 19.8555 99.7898 19.6471 100.22 19.2305C100.656 18.8138 100.874 18.1986 100.874 17.3848V16.1641C100.574 16.6523 100.154 17.0202 99.6141 17.2676C99.0737 17.515 98.4747 17.6387 97.8172 17.6387C96.476 17.6387 95.366 17.1602 94.4871 16.2031C93.6147 15.2461 93.1785 14.0059 93.1785 12.4824C93.1785 10.959 93.6147 9.71875 94.4871 8.76172C95.366 7.79818 96.476 7.31641 97.8172 7.31641C98.4812 7.31641 99.0835 7.44336 99.6238 7.69727C100.171 7.94466 100.604 8.31901 100.923 8.82031V7.56055H103.843V17.1406C103.836 18.8138 103.371 20.0801 102.446 20.9395C101.522 21.8053 100.174 22.2383 98.4031 22.2383ZM96.2156 12.4824C96.2156 13.3418 96.437 14.0124 96.8797 14.4941C97.3289 14.9759 97.9148 15.2168 98.6375 15.2168C99.3667 15.2168 99.9493 14.9792 100.386 14.5039C100.822 14.0221 101.04 13.3483 101.04 12.4824C101.04 11.61 100.818 10.9362 100.376 10.4609C99.9396 9.97917 99.3602 9.73828 98.6375 9.73828C97.9083 9.73828 97.3224 9.97917 96.8797 10.4609C96.437 10.9427 96.2156 11.6165 96.2156 12.4824Z" fill="white"/>
</g>
<defs>
<clipPath id="clip0_1_12">
<rect width="105" height="23" fill="white"/>
</clipPath>
</defs>
</svg>
